# xmcd CD database file
#
# Track frame offsets:
#	150
#	23812
#	38810
#	59918
#	90895
#	113388
#	146213
#	187384
#	205894
#	217162
#	241764
#
# Disc length: 3578 seconds
#
# Revision: 0
# Processed by: cddbd v1.5.1PL2 Copyright (c) Steve Scherf et al.
# Submitted via: CDex 1.60beta1
#
DISCID=a10df80b
DTITLE=CASIOPEA - VINTAGE 2002 DISC2
DYEAR=2003
DGENRE=Fusion
TTITLE0=Wa-su-re-mo-no
TTITLE1=SIDE WALK
TTITLE2=GOOD LUCK!
TTITLE3=CAPTAIN SENOR MOUSE
TTITLE4=CRYU WITH TERRA
TTITLE5=TRANCE EVOLUTION
TTITLE6=THE BASS GREETINGS
TTITLE7=DAZZLING
TTITLE8=DRUMS SOLO
TTITLE9=ASAYAKE
TTITLE10=WINDY SUNSHINE
EXTD=YEAR: 2003
EXTT0=
EXTT1=
EXTT2=
EXTT3=
EXTT4=
EXTT5=
EXTT6=
EXTT7=
EXTT8=
EXTT9=
EXTT10=
PLAYORDER=
